# xmcd
#
# Track frame offsets:
#	187
#	22335
#	37555
#	49007
#	64987
#	76700
#	91200
#	112050
#	123735
#	136000
#
# Disc length: 1935
#
# Revision: 2
# Processed by: cddbd v1.5.1PL0 Copyright (c) Steve Scherf et al.
# Submitted via: ExactAudioCopy v0.95a5
# Normalized: r0:TDELIM( - ),TSWAP
#
DISCID=7d078d0a
DTITLE=Various Artist - Country's Greatest Hits
DYEAR=1985
DGENRE=Country
TTITLE0=Tanya Tucker - Texas (When I Die)
TTITLE1=John Conlee - Rose Colored Glasses
TTITLE2=Donna Fargo - Happiest Girl In The Whole U.S.A.
TTITLE3=Narvel Felts - Reconsider Me
TTITLE4=Freddy Fender - Before The Next Teardrop Falls
TTITLE5=Red Foley - (There'll Be) Peace In The Valley (For Me)
TTITLE6=Brenda Lee - Big Four Poster Bed
TTITLE7=Bill Monroe - Gotta Travel On
TTITLE8=Loretta Lynn - Heart Don't Do This To Me
TTITLE9=Patsy Cline - Walking After Midnight
EXTD=
EXTT0=
EXTT1=
EXTT2=
EXTT3=
EXTT4=
EXTT5=
EXTT6=
EXTT7=
EXTT8=
EXTT9=
PLAYORDER=
